# xmcd
#
# Track frame offsets:
#	150
#	17279
#	34004
#	48156
#	75260
#	94770
#	108762
#	127296
#	141648
#	165078
#	183872
#	210637
#	225621
#	245843
#	272953
#	292255
#	312952
#
# Disc length: 4456 seconds
#
# Revision: 2
# Processed by: cddbd v1.5PL3 Copyright (c) Steve Scherf et al.
# Submitted via: MusicManager 7.0.3.0 
#
DISCID=e7116611
DTITLE=Blood, Sweat and Tears - What Goes Up!: The Best Of Blood, Sweat and Tears [CD1)
DYEAR=1900
DGENRE=
TTITLE0=Refugee From Yuhupitz (mono) (instrumental, audition track)
TTITLE1=I Can't Quit Her
TTITLE2=House In The Country
TTITLE3=I Love You More Than You'll Ever Know
TTITLE4=You've Made Me So Very Happy
TTITLE5=More And More
TTITLE6=And When I Die
TTITLE7=Sometimes In Winter
TTITLE8=Smiling Phases
TTITLE9=Spinning Wheel
TTITLE10=God Bless The Child
TTITLE11=Children Of The Wind
TTITLE12=Hi-De-Ho
TTITLE13=Lucretia Mac Evil
TTITLE14=He's A Runner
TTITLE15=Something's Coming On
TTITLE16=40,000 Headmen
EXTD=
EXTT0=
EXTT1=
EXTT2=
EXTT3=
EXTT4=
EXTT5=
EXTT6=
EXTT7=
EXTT8=
EXTT9=
EXTT10=
EXTT11=
EXTT12=
EXTT13=
EXTT14=
EXTT15=
EXTT16=
PLAYORDER=
